<?xml version="1.0" encoding="iso-8859-1"?>
<svg version="1.1" id="Layer_1" xmlns="http://www.w3.org/2000/svg" xmlns:xlink="http://www.w3.org/1999/xlink" x="0px" y="0px"
	 viewBox="0 0 24 24" enable-background="new 0 0 24 24" xml:space="preserve">
<g>
	<path fill="#303C42" d="M24,7.5C24,5.0185547,21.9814453,3,19.5,3S15,5.0185547,15,7.5
		c0,0.309082,0.0316162,0.6109009,0.0912476,0.9026489C14.6013184,8.1466675,14.0501099,8,13.46875,8H6.8457031
		C4.1738281,8,2,10.1738281,2,12.8457031C2,13.6879883,2.2207031,14.5195313,2.6386719,15.25l1,1.75H2c-1.1030273,0-2,0.8969727-2,2
		s0.8969727,2,2,2h3.5C6.878418,21,8,19.878418,8,18.5V16h6.1616211l1.4438477,3.6113281
		C15.9433594,20.4545898,16.7490234,21,17.6650391,21c1.015625,0,1.8969727-0.6884766,2.1435547-1.6743164l0.0419922-0.1674805
		c0.1137695-0.4541016,0.0820313-0.9238281-0.0917969-1.3569336l-2.5877075-6.4700317C17.8527222,11.7471313,18.6447144,12,19.5,12
		C21.9814453,12,24,9.9814453,24,7.5z"/>
	<circle fill="#FDD2B0" cx="19.5" cy="7.5" r="3.5"/>
	<path fill="#FFFFFF" d="M6.8457031,9H7v6H3.6474609l-0.140625-0.2460938C3.175293,14.1738281,3,13.5141602,3,12.8457031
		C3,10.7250977,4.7250977,9,6.8457031,9z"/>
	<path fill="#FDD2B0" d="M5.5,20H2c-0.5512695,0-1-0.4487305-1-1s0.4487305-1,1-1h2.5
		c0.1782227,0,0.3427734-0.0947266,0.4326172-0.2490234c0.0893555-0.1542969,0.0898438-0.3442383,0.0014648-0.4990234L4.218811,16H7
		v2.5C7,19.3271484,6.3271484,20,5.5,20z"/>
	<path fill="#FDD2B0" d="M18.8808594,18.9155273l-0.0419922,0.1674805C18.7036133,19.6230469,18.2211914,20,17.6577148,20
		c-0.4975586,0-0.9389648-0.2983398-1.1235352-0.7602539l-1.5698242-3.925293C14.8881836,15.1245117,14.7045898,15,14.5,15H8V9
		h5.46875c1.0283203,0,1.9394531,0.6166992,2.3212891,1.5712891l3.0405273,7.6015625
		C18.925293,18.4101563,18.9428711,18.6665039,18.8808594,18.9155273z"/>
	<path opacity="0.1" fill="#010101" d="M20.6224365,4.2012787C20.8562622,4.6702728,21,5.191391,21,5.7499847
		c0,1.9296875-1.5703125,3.5-3.5,3.5c-0.3947754,0-0.7680664-0.0802002-1.1224365-0.2012939
		C16.951416,10.1998749,18.1289063,10.9999847,19.5,10.9999847c1.9296875,0,3.5-1.5703125,3.5-3.5
		C23,5.9650726,22.000061,4.6720428,20.6224365,4.2012787z"/>
	<linearGradient id="SVGID_1_" gradientUnits="userSpaceOnUse" x1="3.5249691" y1="8.5017786" x2="21.0829258" y2="16.689188">
		<stop  offset="0" style="stop-color:#FFFFFF;stop-opacity:0.2"/>
		<stop  offset="1" style="stop-color:#FFFFFF;stop-opacity:0"/>
	</linearGradient>
	<path fill="url(#SVGID_1_)" d="M24,7.5C24,5.0185547,21.9814453,3,19.5,3S15,5.0185547,15,7.5
		c0,0.309082,0.0316162,0.6109009,0.0912476,0.9026489C14.6013184,8.1466675,14.0501099,8,13.46875,8H6.8457031
		C4.1738281,8,2,10.1738281,2,12.8457031C2,13.6879883,2.2207031,14.5195313,2.6386719,15.25l1,1.75H2c-1.1030273,0-2,0.8969727-2,2
		s0.8969727,2,2,2h3.5C6.878418,21,8,19.878418,8,18.5V16h6.1616211l1.4438477,3.6113281
		C15.9433594,20.4545898,16.7490234,21,17.6650391,21c1.015625,0,1.8969727-0.6884766,2.1435547-1.6743164l0.0419922-0.1674805
		c0.1137695-0.4541016,0.0820313-0.9238281-0.0917969-1.3569336l-2.5877075-6.4700317C17.8527222,11.7471313,18.6447144,12,19.5,12
		C21.9814453,12,24,9.9814453,24,7.5z"/>
</g>
<g>
</g>
<g>
</g>
<g>
</g>
<g>
</g>
<g>
</g>
<g>
</g>
<g>
</g>
<g>
</g>
<g>
</g>
<g>
</g>
<g>
</g>
<g>
</g>
<g>
</g>
<g>
</g>
<g>
</g>
</svg>
